<svg xmlns="http://www.w3.org/2000/svg" class="draughtsman" role="img" aria-label="tube — a coordinated-event detector" viewBox="0 0 1252.42 414.99" width="1252.42" height="414.99">
<title>tube — a coordinated-event detector</title>
<desc>tube — a coordinated-event detector: 7 stages over 47 traced operations, 1149 parameters.</desc>
<defs><marker id="ds-arrow" viewBox="0 0 8 8" refX="7" refY="4" markerWidth="7" markerHeight="7" orient="auto-start-reverse"><path d="M0 0.6 L8 4 L0 7.4 Z" style="fill:currentColor"/></marker></defs>
<text class="ds-title" x="12" y="15" style="font-family:'Helvetica Neue', Helvetica, Arial, sans-serif;font-size:12.0px;font-weight:600;fill:currentColor">tube — a coordinated-event detector</text>
<text class="ds-subtitle" x="12" y="29" style="font-family:'Helvetica Neue', Helvetica, Arial, sans-serif;font-size:9.5px;fill:currentColor;opacity:0.62">1149 parameters · 30×600 in, 600 out</text>
<g class="ds-body" transform="translate(0 36)">
<path class="ds-edge ds-edge-solid" data-from="raster" data-to="widen" d="M130.01 128.5 C157.01 128.5 157.01 128.5 184.01 128.5" style="fill:none;stroke:currentColor;stroke-width:1.4" marker-end="url(#ds-arrow)"/>
<path class="ds-edge ds-edge-solid" data-from="widen" data-to="mean" d="M307 128.5 C334 128.5 334 128.5 361 128.5" style="fill:none;stroke:currentColor;stroke-width:1.4" marker-end="url(#ds-arrow)"/>
<path class="ds-edge ds-edge-solid" data-from="mean" data-to="concat" d="M474.06 128.5 C547.01 128.5 547.01 252.99 619.95 252.99 C692.9 252.99 692.9 128.49 765.84 128.49" style="fill:none;stroke:currentColor;stroke-width:1.4" marker-end="url(#ds-arrow)"/><text class="ds-edge-label" x="619.96" y="244.99" text-anchor="middle" style="font-family:'Helvetica Neue', Helvetica, Arial, sans-serif;font-size:9.5px;fill:currentColor;opacity:0.62">bypass</text>
<path class="ds-edge ds-edge-solid" data-from="mean" data-to="dog" d="M474.06 128.5 C501.07 128.5 501.07 128.49 528.07 128.49" style="fill:none;stroke:currentColor;stroke-width:1.4" marker-end="url(#ds-arrow)"/>
<path class="ds-edge ds-edge-solid" data-from="dog" data-to="concat" d="M711.84 128.49 C738.84 128.49 738.84 128.49 765.84 128.49" style="fill:none;stroke:currentColor;stroke-width:1.4" marker-end="url(#ds-arrow)"/>
<path class="ds-edge ds-edge-solid" data-from="concat" data-to="head" d="M863.69 128.49 C890.69 128.49 890.69 128.48 917.69 128.48" style="fill:none;stroke:currentColor;stroke-width:1.4" marker-end="url(#ds-arrow)"/>
<path class="ds-edge ds-edge-solid" data-from="head" data-to="score" d="M1042.79 128.48 C1069.79 128.48 1069.79 128.48 1096.79 128.48" style="fill:none;stroke:currentColor;stroke-width:1.4" marker-end="url(#ds-arrow)"/>
<g class="ds-stage ds-kind-input" data-stage="raster"><rect x="16" y="16" width="114.01" height="225" rx="4" style="fill:#f2f2f0;stroke:#8a8a86;stroke-width:1.2"/><text x="73.01" y="37" text-anchor="middle" style="font-family:'Helvetica Neue', Helvetica, Arial, sans-serif;font-size:12.0px;font-weight:600;fill:#1a1a1a">onset raster</text><text x="73.01" y="49.5" text-anchor="middle" style="font-family:'Helvetica Neue', Helvetica, Arial, sans-serif;font-size:9.5px;fill:#5b5b5b">30×600</text><text x="73.01" y="62" text-anchor="middle" style="font-family:'Helvetica Neue', Helvetica, Arial, sans-serif;font-size:9.5px;fill:#5b5b5b">cells × frames, binary</text><rect class="ds-mark" x="71.51" y="69" width="3" height="3" style="fill:#8a8a86;fill-opacity:0.75"/><rect class="ds-mark" x="71.51" y="74" width="3" height="3" style="fill:#8a8a86;fill-opacity:0.75"/><rect class="ds-mark" x="71.51" y="79" width="3" height="3" style="fill:#8a8a86;fill-opacity:0.75"/><rect class="ds-mark" x="71.51" y="84" width="3" height="3" style="fill:#8a8a86;fill-opacity:0.75"/><rect class="ds-mark" x="71.51" y="89" width="3" height="3" style="fill:#8a8a86;fill-opacity:0.75"/><rect class="ds-mark" x="71.51" y="94" width="3" height="3" style="fill:#8a8a86;fill-opacity:0.75"/><rect class="ds-mark" x="71.51" y="99" width="3" height="3" style="fill:#8a8a86;fill-opacity:0.75"/><rect class="ds-mark" x="71.51" y="104" width="3" height="3" style="fill:#8a8a86;fill-opacity:0.75"/><rect class="ds-mark" x="71.51" y="109" width="3" height="3" style="fill:#8a8a86;fill-opacity:0.75"/><rect class="ds-mark" x="71.51" y="114" width="3" height="3" style="fill:#8a8a86;fill-opacity:0.75"/><rect class="ds-mark" x="71.51" y="119" width="3" height="3" style="fill:#8a8a86;fill-opacity:0.75"/><rect class="ds-mark" x="71.51" y="124" width="3" height="3" style="fill:#8a8a86;fill-opacity:0.75"/><rect class="ds-mark" x="71.51" y="129" width="3" height="3" style="fill:#8a8a86;fill-opacity:0.75"/><rect class="ds-mark" x="71.51" y="134" width="3" height="3" style="fill:#8a8a86;fill-opacity:0.75"/><rect class="ds-mark" x="71.51" y="139" width="3" height="3" style="fill:#8a8a86;fill-opacity:0.75"/><rect class="ds-mark" x="71.51" y="144" width="3" height="3" style="fill:#8a8a86;fill-opacity:0.75"/><rect class="ds-mark" x="71.51" y="149" width="3" height="3" style="fill:#8a8a86;fill-opacity:0.75"/><rect class="ds-mark" x="71.51" y="154" width="3" height="3" style="fill:#8a8a86;fill-opacity:0.75"/><rect class="ds-mark" x="71.51" y="159" width="3" height="3" style="fill:#8a8a86;fill-opacity:0.75"/><rect class="ds-mark" x="71.51" y="164" width="3" height="3" style="fill:#8a8a86;fill-opacity:0.75"/><rect class="ds-mark" x="71.51" y="169" width="3" height="3" style="fill:#8a8a86;fill-opacity:0.75"/><rect class="ds-mark" x="71.51" y="174" width="3" height="3" style="fill:#8a8a86;fill-opacity:0.75"/><rect class="ds-mark" x="71.51" y="179" width="3" height="3" style="fill:#8a8a86;fill-opacity:0.75"/><rect class="ds-mark" x="71.51" y="184" width="3" height="3" style="fill:#8a8a86;fill-opacity:0.75"/><rect class="ds-mark" x="71.51" y="189" width="3" height="3" style="fill:#8a8a86;fill-opacity:0.75"/><rect class="ds-mark" x="71.51" y="194" width="3" height="3" style="fill:#8a8a86;fill-opacity:0.75"/><rect class="ds-mark" x="71.51" y="199" width="3" height="3" style="fill:#8a8a86;fill-opacity:0.75"/><rect class="ds-mark" x="71.51" y="204" width="3" height="3" style="fill:#8a8a86;fill-opacity:0.75"/><rect class="ds-mark" x="71.51" y="209" width="3" height="3" style="fill:#8a8a86;fill-opacity:0.75"/><rect class="ds-mark" x="71.51" y="214" width="3" height="3" style="fill:#8a8a86;fill-opacity:0.75"/><rect class="ds-mark-bar" x="36.08" y="221" width="54" height="5" rx="1" style="fill:#8a8a86;fill-opacity:0.75"/><text class="ds-mark-count" x="94.08" y="226" style="font-family:'Helvetica Neue', Helvetica, Arial, sans-serif;font-size:9.5px;fill:#5b5b5b">600</text></g>
<g class="ds-stage ds-kind-pool" data-stage="widen"><rect x="184.01" y="16" width="122.99" height="225" rx="4" style="fill:#e4eef5;stroke:#6f93a8;stroke-width:1.2"/><text x="245.51" y="37" text-anchor="middle" style="font-family:'Helvetica Neue', Helvetica, Arial, sans-serif;font-size:12.0px;font-weight:600;fill:#1a1a1a">widen each onset</text><text x="245.51" y="49.5" text-anchor="middle" style="font-family:'Helvetica Neue', Helvetica, Arial, sans-serif;font-size:9.5px;fill:#5b5b5b">max-pool, width fitted</text><text x="245.51" y="62" text-anchor="middle" style="font-family:'Helvetica Neue', Helvetica, Arial, sans-serif;font-size:9.5px;fill:#5b5b5b">30×600</text><rect class="ds-mark" x="244.01" y="69" width="3" height="3" style="fill:#6f93a8;fill-opacity:0.75"/><rect class="ds-mark" x="244.01" y="74" width="3" height="3" style="fill:#6f93a8;fill-opacity:0.75"/><rect class="ds-mark" x="244.01" y="79" width="3" height="3" style="fill:#6f93a8;fill-opacity:0.75"/><rect class="ds-mark" x="244.01" y="84" width="3" height="3" style="fill:#6f93a8;fill-opacity:0.75"/><rect class="ds-mark" x="244.01" y="89" width="3" height="3" style="fill:#6f93a8;fill-opacity:0.75"/><rect class="ds-mark" x="244.01" y="94" width="3" height="3" style="fill:#6f93a8;fill-opacity:0.75"/><rect class="ds-mark" x="244.01" y="99" width="3" height="3" style="fill:#6f93a8;fill-opacity:0.75"/><rect class="ds-mark" x="244.01" y="104" width="3" height="3" style="fill:#6f93a8;fill-opacity:0.75"/><rect class="ds-mark" x="244.01" y="109" width="3" height="3" style="fill:#6f93a8;fill-opacity:0.75"/><rect class="ds-mark" x="244.01" y="114" width="3" height="3" style="fill:#6f93a8;fill-opacity:0.75"/><rect class="ds-mark" x="244.01" y="119" width="3" height="3" style="fill:#6f93a8;fill-opacity:0.75"/><rect class="ds-mark" x="244.01" y="124" width="3" height="3" style="fill:#6f93a8;fill-opacity:0.75"/><rect class="ds-mark" x="244.01" y="129" width="3" height="3" style="fill:#6f93a8;fill-opacity:0.75"/><rect class="ds-mark" x="244.01" y="134" width="3" height="3" style="fill:#6f93a8;fill-opacity:0.75"/><rect class="ds-mark" x="244.01" y="139" width="3" height="3" style="fill:#6f93a8;fill-opacity:0.75"/><rect class="ds-mark" x="244.01" y="144" width="3" height="3" style="fill:#6f93a8;fill-opacity:0.75"/><rect class="ds-mark" x="244.01" y="149" width="3" height="3" style="fill:#6f93a8;fill-opacity:0.75"/><rect class="ds-mark" x="244.01" y="154" width="3" height="3" style="fill:#6f93a8;fill-opacity:0.75"/><rect class="ds-mark" x="244.01" y="159" width="3" height="3" style="fill:#6f93a8;fill-opacity:0.75"/><rect class="ds-mark" x="244.01" y="164" width="3" height="3" style="fill:#6f93a8;fill-opacity:0.75"/><rect class="ds-mark" x="244.01" y="169" width="3" height="3" style="fill:#6f93a8;fill-opacity:0.75"/><rect class="ds-mark" x="244.01" y="174" width="3" height="3" style="fill:#6f93a8;fill-opacity:0.75"/><rect class="ds-mark" x="244.01" y="179" width="3" height="3" style="fill:#6f93a8;fill-opacity:0.75"/><rect class="ds-mark" x="244.01" y="184" width="3" height="3" style="fill:#6f93a8;fill-opacity:0.75"/><rect class="ds-mark" x="244.01" y="189" width="3" height="3" style="fill:#6f93a8;fill-opacity:0.75"/><rect class="ds-mark" x="244.01" y="194" width="3" height="3" style="fill:#6f93a8;fill-opacity:0.75"/><rect class="ds-mark" x="244.01" y="199" width="3" height="3" style="fill:#6f93a8;fill-opacity:0.75"/><rect class="ds-mark" x="244.01" y="204" width="3" height="3" style="fill:#6f93a8;fill-opacity:0.75"/><rect class="ds-mark" x="244.01" y="209" width="3" height="3" style="fill:#6f93a8;fill-opacity:0.75"/><rect class="ds-mark" x="244.01" y="214" width="3" height="3" style="fill:#6f93a8;fill-opacity:0.75"/><rect class="ds-mark-bar" x="208.58" y="221" width="54" height="5" rx="1" style="fill:#6f93a8;fill-opacity:0.75"/><text class="ds-mark-count" x="266.58" y="226" style="font-family:'Helvetica Neue', Helvetica, Arial, sans-serif;font-size:9.5px;fill:#5b5b5b">600</text></g>
<g class="ds-stage ds-kind-reduce" data-stage="mean"><rect x="361" y="88.5" width="113.06" height="80" rx="4" style="fill:#d5e5ef;stroke:#5b829a;stroke-width:1.2"/><text x="417.53" y="109.5" text-anchor="middle" style="font-family:'Helvetica Neue', Helvetica, Arial, sans-serif;font-size:12.0px;font-weight:600;fill:#1a1a1a">mean over cells</text><text x="417.53" y="122" text-anchor="middle" style="font-family:'Helvetica Neue', Helvetica, Arial, sans-serif;font-size:9.5px;fill:#5b5b5b">1×600</text><text x="417.53" y="134.5" text-anchor="middle" style="font-family:'Helvetica Neue', Helvetica, Arial, sans-serif;font-size:9.5px;fill:#5b5b5b">all cells → one trace</text><rect class="ds-mark" x="416.03" y="141.5" width="3" height="3" style="fill:#5b829a;fill-opacity:0.75"/><rect class="ds-mark-bar" x="380.61" y="148.5" width="54" height="5" rx="1" style="fill:#5b829a;fill-opacity:0.75"/><text class="ds-mark-count" x="438.61" y="153.5" style="font-family:'Helvetica Neue', Helvetica, Arial, sans-serif;font-size:9.5px;fill:#5b5b5b">600</text></g>
<g class="ds-stage ds-kind-kernel" data-stage="dog"><rect x="528.07" y="35.99" width="183.78" height="185" rx="4" style="fill:#eef6f1;stroke:#7fae99;stroke-width:1.2"/><text x="619.95" y="56.99" text-anchor="middle" style="font-family:'Helvetica Neue', Helvetica, Arial, sans-serif;font-size:12.0px;font-weight:600;fill:#1a1a1a">difference-of-Gaussian bank</text><text x="619.95" y="69.49" text-anchor="middle" style="font-family:'Helvetica Neue', Helvetica, Arial, sans-serif;font-size:9.5px;fill:#5b5b5b">26 ops, 12 learned params</text><text x="619.95" y="81.99" text-anchor="middle" style="font-family:'Helvetica Neue', Helvetica, Arial, sans-serif;font-size:9.5px;fill:#5b5b5b">kernel 257, area-normalized</text><text x="619.95" y="94.49" text-anchor="middle" style="font-family:'Helvetica Neue', Helvetica, Arial, sans-serif;font-size:9.5px;fill:#5b5b5b">4×600</text><text x="619.95" y="106.99" text-anchor="middle" style="font-family:'Helvetica Neue', Helvetica, Arial, sans-serif;font-size:9.5px;fill:#5b5b5b">channels × frames, from here on</text><rect class="ds-lane" x="535.07" y="114.99" width="169.78" height="12" rx="2" style="fill:#ffffff;fill-opacity:0.62;stroke:#7fae99;stroke-width:0.7"/><text x="619.95" y="123.49" text-anchor="middle" style="font-family:'Helvetica Neue', Helvetica, Arial, sans-serif;font-size:9.5px;fill:#1a1a1a">σ₁</text><rect class="ds-lane" x="535.07" y="129.99" width="169.78" height="12" rx="2" style="fill:#ffffff;fill-opacity:0.62;stroke:#7fae99;stroke-width:0.7"/><text x="619.95" y="138.49" text-anchor="middle" style="font-family:'Helvetica Neue', Helvetica, Arial, sans-serif;font-size:9.5px;fill:#1a1a1a">σ₂</text><rect class="ds-lane" x="535.07" y="144.99" width="169.78" height="12" rx="2" style="fill:#ffffff;fill-opacity:0.62;stroke:#7fae99;stroke-width:0.7"/><text x="619.95" y="153.49" text-anchor="middle" style="font-family:'Helvetica Neue', Helvetica, Arial, sans-serif;font-size:9.5px;fill:#1a1a1a">σ₃</text><rect class="ds-lane" x="535.07" y="159.99" width="169.78" height="12" rx="2" style="fill:#ffffff;fill-opacity:0.62;stroke:#7fae99;stroke-width:0.7"/><text x="619.95" y="168.49" text-anchor="middle" style="font-family:'Helvetica Neue', Helvetica, Arial, sans-serif;font-size:9.5px;fill:#1a1a1a">σ₄</text><rect class="ds-mark" x="618.45" y="178.99" width="3" height="3" style="fill:#7fae99;fill-opacity:0.75"/><rect class="ds-mark" x="618.45" y="183.99" width="3" height="3" style="fill:#7fae99;fill-opacity:0.75"/><rect class="ds-mark" x="618.45" y="188.99" width="3" height="3" style="fill:#7fae99;fill-opacity:0.75"/><rect class="ds-mark" x="618.45" y="193.99" width="3" height="3" style="fill:#7fae99;fill-opacity:0.75"/><rect class="ds-mark-bar" x="583.03" y="200.99" width="54" height="5" rx="1" style="fill:#7fae99;fill-opacity:0.75"/><text class="ds-mark-count" x="641.03" y="205.99" style="font-family:'Helvetica Neue', Helvetica, Arial, sans-serif;font-size:9.5px;fill:#5b5b5b">600</text></g>
<g class="ds-stage ds-kind-concat" data-stage="concat"><rect x="765.84" y="78.49" width="97.85" height="100" rx="4" style="fill:#ece6f2;stroke:#8d7ba8;stroke-width:1.2"/><text x="814.76" y="99.49" text-anchor="middle" style="font-family:'Helvetica Neue', Helvetica, Arial, sans-serif;font-size:12.0px;font-weight:600;fill:#1a1a1a">concatenate</text><text x="814.76" y="111.99" text-anchor="middle" style="font-family:'Helvetica Neue', Helvetica, Arial, sans-serif;font-size:9.5px;fill:#5b5b5b">5 channels</text><text x="814.76" y="124.49" text-anchor="middle" style="font-family:'Helvetica Neue', Helvetica, Arial, sans-serif;font-size:9.5px;fill:#5b5b5b">5×600</text><rect class="ds-mark" x="813.26" y="131.49" width="3" height="3" style="fill:#8d7ba8;fill-opacity:0.75"/><rect class="ds-mark" x="813.26" y="136.49" width="3" height="3" style="fill:#8d7ba8;fill-opacity:0.75"/><rect class="ds-mark" x="813.26" y="141.49" width="3" height="3" style="fill:#8d7ba8;fill-opacity:0.75"/><rect class="ds-mark" x="813.26" y="146.49" width="3" height="3" style="fill:#8d7ba8;fill-opacity:0.75"/><rect class="ds-mark" x="813.26" y="151.49" width="3" height="3" style="fill:#8d7ba8;fill-opacity:0.75"/><rect class="ds-mark-bar" x="777.84" y="158.49" width="54" height="5" rx="1" style="fill:#8d7ba8;fill-opacity:0.75"/><text class="ds-mark-count" x="835.84" y="163.49" style="font-family:'Helvetica Neue', Helvetica, Arial, sans-serif;font-size:9.5px;fill:#5b5b5b">600</text></g>
<g class="ds-stage ds-kind-stack" data-stage="head"><rect x="917.69" y="64.73" width="125.1" height="127.5" rx="4" style="fill:#d1e4d9;stroke:#5a8a71;stroke-width:1.2"/><text x="980.24" y="85.73" text-anchor="middle" style="font-family:'Helvetica Neue', Helvetica, Arial, sans-serif;font-size:12.0px;font-weight:600;fill:#1a1a1a">dilated conv stack</text><text x="980.24" y="98.23" text-anchor="middle" style="font-family:'Helvetica Neue', Helvetica, Arial, sans-serif;font-size:9.5px;fill:#5b5b5b">kernel 3, dilation 1 → 32</text><text x="980.24" y="110.73" text-anchor="middle" style="font-family:'Helvetica Neue', Helvetica, Arial, sans-serif;font-size:9.5px;fill:#5b5b5b">1128 params</text><text x="980.24" y="123.23" text-anchor="middle" style="font-family:'Helvetica Neue', Helvetica, Arial, sans-serif;font-size:9.5px;fill:#5b5b5b">8×600</text><rect class="ds-mark" x="978.74" y="130.23" width="3" height="3" style="fill:#5a8a71;fill-opacity:0.75"/><rect class="ds-mark" x="978.74" y="135.23" width="3" height="3" style="fill:#5a8a71;fill-opacity:0.75"/><rect class="ds-mark" x="978.74" y="140.23" width="3" height="3" style="fill:#5a8a71;fill-opacity:0.75"/><rect class="ds-mark" x="978.74" y="145.23" width="3" height="3" style="fill:#5a8a71;fill-opacity:0.75"/><rect class="ds-mark" x="978.74" y="150.23" width="3" height="3" style="fill:#5a8a71;fill-opacity:0.75"/><rect class="ds-mark" x="978.74" y="155.23" width="3" height="3" style="fill:#5a8a71;fill-opacity:0.75"/><rect class="ds-mark" x="978.74" y="160.23" width="3" height="3" style="fill:#5a8a71;fill-opacity:0.75"/><rect class="ds-mark" x="978.74" y="165.23" width="3" height="3" style="fill:#5a8a71;fill-opacity:0.75"/><rect class="ds-mark-bar" x="943.31" y="172.23" width="54" height="5" rx="1" style="fill:#5a8a71;fill-opacity:0.75"/><text class="ds-mark-count" x="1001.31" y="177.23" style="font-family:'Helvetica Neue', Helvetica, Arial, sans-serif;font-size:9.5px;fill:#5b5b5b">600</text></g>
<g class="ds-stage ds-kind-output" data-stage="score"><rect x="1096.79" y="93.23" width="139.63" height="70.5" rx="4" style="fill:#f2f2f0;stroke:#8a8a86;stroke-width:1.2"/><text x="1166.6" y="114.23" text-anchor="middle" style="font-family:'Helvetica Neue', Helvetica, Arial, sans-serif;font-size:12.0px;font-weight:600;fill:#1a1a1a">per-frame score</text><text x="1166.6" y="126.73" text-anchor="middle" style="font-family:'Helvetica Neue', Helvetica, Arial, sans-serif;font-size:9.5px;fill:#5b5b5b">kernel 1</text><text x="1166.6" y="139.23" text-anchor="middle" style="font-family:'Helvetica Neue', Helvetica, Arial, sans-serif;font-size:9.5px;fill:#5b5b5b">9 params</text><text x="1166.6" y="151.73" text-anchor="middle" style="font-family:'Helvetica Neue', Helvetica, Arial, sans-serif;font-size:9.5px;fill:#5b5b5b">600 — one score per frame</text></g>
</g>
<g class="ds-legend">
<rect class="ds-legend-swatch ds-kind-kernel" x="12" y="318.99" width="9" height="9" rx="2" style="fill:#eef6f1;stroke:#7fae99;stroke-width:1"/>
<text class="ds-legend-label" x="27" y="327.49" style="font-family:'Helvetica Neue', Helvetica, Arial, sans-serif;font-size:9.5px;font-weight:600;fill:currentColor">Convolution</text>
<text class="ds-legend-share" x="86.17" y="327.49" style="font-family:'Helvetica Neue', Helvetica, Arial, sans-serif;font-size:9.5px;fill:currentColor;opacity:0.62">38 ops, 1140 params</text>
<rect class="ds-legend-swatch ds-kind-pool" x="12" y="333.99" width="9" height="9" rx="2" style="fill:#e4eef5;stroke:#6f93a8;stroke-width:1"/>
<text class="ds-legend-label" x="27" y="342.49" style="font-family:'Helvetica Neue', Helvetica, Arial, sans-serif;font-size:9.5px;font-weight:600;fill:currentColor">Pool / reduce</text>
<text class="ds-legend-share" x="92.33" y="342.49" style="font-family:'Helvetica Neue', Helvetica, Arial, sans-serif;font-size:9.5px;fill:currentColor;opacity:0.62">6 ops</text>
<rect class="ds-legend-swatch ds-kind-concat" x="12" y="348.99" width="9" height="9" rx="2" style="fill:#ece6f2;stroke:#8d7ba8;stroke-width:1"/>
<text class="ds-legend-label" x="27" y="357.49" style="font-family:'Helvetica Neue', Helvetica, Arial, sans-serif;font-size:9.5px;font-weight:600;fill:currentColor">Concat / join</text>
<text class="ds-legend-share" x="88.97" y="357.49" style="font-family:'Helvetica Neue', Helvetica, Arial, sans-serif;font-size:9.5px;fill:currentColor;opacity:0.62">1 op</text>
<rect class="ds-legend-swatch ds-kind-input" x="12" y="363.99" width="9" height="9" rx="2" style="fill:#f2f2f0;stroke:#8a8a86;stroke-width:1"/>
<text class="ds-legend-label" x="27" y="372.49" style="font-family:'Helvetica Neue', Helvetica, Arial, sans-serif;font-size:9.5px;font-weight:600;fill:currentColor">Input / output</text>
<text class="ds-legend-share" x="91.79" y="372.49" style="font-family:'Helvetica Neue', Helvetica, Arial, sans-serif;font-size:9.5px;fill:currentColor;opacity:0.62">2 ops, 9 params</text>
<rect class="ds-legend-glyph" x="12" y="379.99" width="9" height="8" style="fill:currentColor;fill-opacity:0.42"/>
<text class="ds-legend-label" x="27" y="387.49" style="font-family:'Helvetica Neue', Helvetica, Arial, sans-serif;font-size:9.5px;font-weight:600;fill:currentColor">channels × frames</text>
<text class="ds-legend-share" x="115.55" y="387.49" style="font-family:'Helvetica Neue', Helvetica, Arial, sans-serif;font-size:9.5px;fill:currentColor;opacity:0.62">one mark = one channel · a bar means more than 32, counted beside it</text>
</g>
<text class="ds-caption" x="12" y="403.49" style="font-family:'Helvetica Neue', Helvetica, Arial, sans-serif;font-size:9.5px;fill:currentColor;opacity:0.62">Traced with torch.jit.trace; every quantity is read from graph.json by node id. The kernel bank collapses 26 traced operations.</text>
</svg>
