<svg width="192" height="96" preserveAspectRatio="xMidYMid meet" xmlns="http://www.w3.org/2000/svg" class="draughtsman" role="img" aria-label="line — how much of the field is lit at once" viewBox="-1.53 34.47 911.72 778.08">
<title>line — how much of the field is lit at once</title>
<desc>line — how much of the field is lit at once: 8 stages over 160 traced operations, 1233 parameters.</desc>
<defs><marker id="ds-arrow" viewBox="0 0 8 8" refX="7" refY="4" markerWidth="7" markerHeight="7" orient="auto-start-reverse"><path d="M0 0.6 L8 4 L0 7.4 Z" style="fill:currentColor"/></marker></defs>


<g class="ds-body" transform="translate(0 36)">
<path class="ds-edge ds-edge-solid" data-from="raster" data-to="smear" d="M159.65 173.51 C186.65 173.51 186.65 173.5 213.65 173.5" style="fill:none;stroke:currentColor;stroke-width:1.4" marker-end="url(#ds-arrow)"/>
<path class="ds-edge ds-edge-solid" data-from="smear" data-to="vote" d="M391.06 173.5 L883.65 173.5 Q892.65 173.5 892.65 182.5 L892.65 352 Q892.65 361 883.65 361 L25 361 Q16 361 16 370 L16 500.75 Q16 509.75 25 509.75 L43 509.75" style="fill:none;stroke:currentColor;stroke-width:1.4" marker-end="url(#ds-arrow)"/>
<path class="ds-edge ds-edge-solid" data-from="vote" data-to="count" d="M197.44 509.75 C224.44 509.75 224.44 509.74 251.44 509.74" style="fill:none;stroke:currentColor;stroke-width:1.4" marker-end="url(#ds-arrow)"/>
<path class="ds-edge ds-edge-solid" data-from="count" data-to="join" d="M480.58 509.74 C507.58 509.74 507.58 615.72 534.58 615.72 C626.47 615.72 626.47 615.72 718.35 615.72 C745.35 615.72 745.35 509.71 772.35 509.71" style="fill:none;stroke:currentColor;stroke-width:1.4" marker-end="url(#ds-arrow)"/>
<path class="ds-edge ds-edge-solid" data-from="count" data-to="dog" d="M480.58 509.74 C507.58 509.74 507.58 509.72 534.58 509.72" style="fill:none;stroke:currentColor;stroke-width:1.4" marker-end="url(#ds-arrow)"/>
<path class="ds-edge ds-edge-solid" data-from="dog" data-to="join" d="M718.35 509.72 C745.35 509.72 745.35 509.71 772.35 509.71" style="fill:none;stroke:currentColor;stroke-width:1.4" marker-end="url(#ds-arrow)"/>
<path class="ds-edge ds-edge-solid" data-from="join" data-to="head" d="M865.65 509.71 L883.65 509.71 Q892.65 509.71 892.65 518.71 L892.65 649.5 Q892.65 658.5 883.65 658.5 L25 658.5 Q16 658.5 16 667.5 L16 714.76 Q16 723.76 25 723.76 L43 723.76" style="fill:none;stroke:currentColor;stroke-width:1.4" marker-end="url(#ds-arrow)"/>
<path class="ds-edge ds-edge-solid" data-from="head" data-to="score" d="M168.1 723.76 C195.1 723.76 195.1 723.75 222.1 723.75" style="fill:none;stroke:currentColor;stroke-width:1.4" marker-end="url(#ds-arrow)"/>
<g class="ds-stage ds-kind-input" data-stage="raster"><rect x="43" y="61.01" width="116.65" height="225" rx="4" style="fill:var(--ds-fill-input,#f2f2f0);stroke:var(--ds-stroke-input,#8a8a86);stroke-width:1.2"/></g>
<g class="ds-stage ds-kind-kernel" data-stage="smear"><rect x="213.65" y="16" width="177.4" height="315" rx="4" style="fill:var(--ds-fill-kernel,#eef6f1);stroke:var(--ds-stroke-kernel,#7fae99);stroke-width:1.2"/><rect class="ds-lane" x="220.65" y="95" width="163.4" height="12" rx="2" style="fill:#ffffff;fill-opacity:0.62;stroke:var(--ds-stroke-kernel,#7fae99);stroke-width:0.7"/><rect class="ds-lane" x="220.65" y="110" width="163.4" height="12" rx="2" style="fill:#ffffff;fill-opacity:0.62;stroke:var(--ds-stroke-kernel,#7fae99);stroke-width:0.7"/><rect class="ds-lane" x="220.65" y="125" width="163.4" height="12" rx="2" style="fill:#ffffff;fill-opacity:0.62;stroke:var(--ds-stroke-kernel,#7fae99);stroke-width:0.7"/><rect class="ds-lane" x="220.65" y="140" width="163.4" height="12" rx="2" style="fill:#ffffff;fill-opacity:0.62;stroke:var(--ds-stroke-kernel,#7fae99);stroke-width:0.7"/></g>
<g class="ds-stage ds-kind-op" data-stage="vote"><rect x="43" y="391" width="154.44" height="237.5" rx="4" style="fill:var(--ds-fill-op,#f0f0ef);stroke:var(--ds-stroke-op,#8a8a86);stroke-width:1.2"/></g>
<g class="ds-stage ds-kind-reduce" data-stage="count"><rect x="251.44" y="480.74" width="229.13" height="58" rx="4" style="fill:var(--ds-fill-reduce,#d5e5ef);stroke:var(--ds-stroke-reduce,#5b829a);stroke-width:1.2"/></g>
<g class="ds-stage ds-kind-kernel" data-stage="dog"><rect x="534.58" y="435.72" width="183.78" height="148" rx="4" style="fill:var(--ds-fill-kernel,#eef6f1);stroke:var(--ds-stroke-kernel,#7fae99);stroke-width:1.2"/><rect class="ds-lane" x="541.58" y="514.72" width="169.78" height="12" rx="2" style="fill:#ffffff;fill-opacity:0.62;stroke:var(--ds-stroke-kernel,#7fae99);stroke-width:0.7"/><rect class="ds-lane" x="541.58" y="529.72" width="169.78" height="12" rx="2" style="fill:#ffffff;fill-opacity:0.62;stroke:var(--ds-stroke-kernel,#7fae99);stroke-width:0.7"/><rect class="ds-lane" x="541.58" y="544.72" width="169.78" height="12" rx="2" style="fill:#ffffff;fill-opacity:0.62;stroke:var(--ds-stroke-kernel,#7fae99);stroke-width:0.7"/><rect class="ds-lane" x="541.58" y="559.72" width="169.78" height="12" rx="2" style="fill:#ffffff;fill-opacity:0.62;stroke:var(--ds-stroke-kernel,#7fae99);stroke-width:0.7"/></g>
<g class="ds-stage ds-kind-concat" data-stage="join"><rect x="772.35" y="480.71" width="93.3" height="58" rx="4" style="fill:var(--ds-fill-concat,#ece6f2);stroke:var(--ds-stroke-concat,#8d7ba8);stroke-width:1.2"/></g>
<g class="ds-stage ds-kind-stack" data-stage="head"><rect x="43" y="688.51" width="125.1" height="70.5" rx="4" style="fill:var(--ds-fill-stack,#d1e4d9);stroke:var(--ds-stroke-stack,#5a8a71);stroke-width:1.2"/></g>
<g class="ds-stage ds-kind-output" data-stage="score"><rect x="222.1" y="688.5" width="150.46" height="70.5" rx="4" style="fill:var(--ds-fill-output,#f2f2f0);stroke:var(--ds-stroke-output,#8a8a86);stroke-width:1.2"/></g>
</g>


</svg>
